<svg width="142" height="44" viewBox="0 0 142 44" fill="none" xmlns="http://www.w3.org/2000/svg" role="img" aria-labelledby="title desc">
  <title id="title">CMS</title>
  <desc id="desc">세련된 콘텐츠 관리 시스템 로고</desc>
  <defs>
    <linearGradient id="cms-mark" x1="9" y1="5" x2="38" y2="39" gradientUnits="userSpaceOnUse">
      <stop stop-color="#49BEFF"/>
      <stop offset="0.52" stop-color="#5D87FF"/>
      <stop offset="1" stop-color="#8754EC"/>
    </linearGradient>
    <filter id="soft-shadow" x="0" y="0" width="48" height="48" color-interpolation-filters="sRGB">
      <feDropShadow dx="0" dy="6" stdDeviation="5" flood-color="#5D87FF" flood-opacity="0.22"/>
    </filter>
  </defs>
  <g filter="url(#soft-shadow)">
    <path d="M22 4L39.321 14V34L22 44L4.679 34V14L22 4Z" fill="url(#cms-mark)"/>
    <path d="M22 11.25L33.042 17.625V30.375L22 36.75L10.958 30.375V17.625L22 11.25Z" fill="white" fill-opacity="0.16" stroke="white" stroke-opacity="0.42" stroke-width="1.25"/>
    <path d="M18.2 18.7H28.5C30.433 18.7 32 20.267 32 22.2V22.65C32 24.583 30.433 26.15 28.5 26.15H21.7C20.982 26.15 20.4 26.732 20.4 27.45C20.4 28.168 20.982 28.75 21.7 28.75H29.8" stroke="white" stroke-width="3" stroke-linecap="round"/>
    <path d="M14 17.5V30.5" stroke="white" stroke-width="3" stroke-linecap="round"/>
  </g>
  <path d="M59.425 31.28C56.825 31.28 54.705 30.493 53.065 28.92C51.425 27.347 50.605 25.267 50.605 22.68C50.605 20.08 51.432 17.993 53.085 16.42C54.752 14.847 56.905 14.06 59.545 14.06C61.025 14.06 62.378 14.333 63.605 14.88C64.845 15.413 65.818 16.167 66.525 17.14L63.705 20.04C62.678 18.747 61.365 18.1 59.765 18.1C58.258 18.1 57.038 18.52 56.105 19.36C55.185 20.2 54.725 21.307 54.725 22.68C54.725 24.053 55.178 25.16 56.085 26C56.992 26.84 58.185 27.26 59.665 27.26C61.438 27.26 62.805 26.553 63.765 25.14L66.705 27.84C65.932 28.947 64.918 29.8 63.665 30.4C62.412 30.987 60.998 31.28 59.425 31.28Z" fill="#1C2536"/>
  <path d="M89.454 31H85.514V20.66L80.994 27.6H79.214L74.674 20.68V31H70.734V14.34H74.474L80.114 22.98L85.734 14.34H89.454V31Z" fill="#1C2536"/>
  <path d="M100.46 31.28C98.954 31.28 97.521 31.047 96.161 30.58C94.801 30.113 93.714 29.48 92.901 28.68L95.001 25.46C95.814 26.113 96.714 26.607 97.701 26.94C98.701 27.273 99.681 27.44 100.641 27.44C101.574 27.44 102.294 27.327 102.801 27.1C103.321 26.873 103.581 26.54 103.581 26.1C103.581 25.66 103.321 25.32 102.801 25.08C102.294 24.827 101.401 24.58 100.121 24.34C97.894 23.9 96.261 23.28 95.221 22.48C94.181 21.667 93.661 20.547 93.661 19.12C93.661 17.573 94.307 16.347 95.601 15.44C96.894 14.52 98.627 14.06 100.801 14.06C102.067 14.06 103.287 14.247 104.461 14.62C105.634 14.993 106.621 15.513 107.421 16.18L105.401 19.36C104.147 18.4 102.674 17.92 100.981 17.92C99.047 17.92 98.081 18.333 98.081 19.16C98.081 19.56 98.314 19.873 98.781 20.1C99.261 20.313 100.121 20.547 101.361 20.8C103.734 21.28 105.441 21.933 106.481 22.76C107.521 23.587 108.041 24.753 108.041 26.26C108.041 27.833 107.354 29.067 105.981 29.96C104.621 30.84 102.781 31.28 100.46 31.28Z" fill="#1C2536"/>
  <path d="M51 36.5H109" stroke="#5D87FF" stroke-width="2" stroke-linecap="round" stroke-dasharray="2 6"/>
</svg>
