<svg width="560" height="220" viewBox="0 0 560 220" fill="none" xmlns="http://www.w3.org/2000/svg" role="img" aria-label="Floating 3D content shapes">
  <defs>
    <linearGradient id="cubeA" x1="83" y1="20" x2="201" y2="126" gradientUnits="userSpaceOnUse">
      <stop stop-color="#8EA8FF"/>
      <stop offset="1" stop-color="#5D87FF"/>
    </linearGradient>
    <linearGradient id="cubeB" x1="355" y1="54" x2="455" y2="158" gradientUnits="userSpaceOnUse">
      <stop stop-color="#62D6FF"/>
      <stop offset="1" stop-color="#49BEFF"/>
    </linearGradient>
    <linearGradient id="orb" x1="271" y1="16" x2="345" y2="91" gradientUnits="userSpaceOnUse">
      <stop stop-color="#FFE89B"/>
      <stop offset="1" stop-color="#F6B51E"/>
    </linearGradient>
    <filter id="softShadow" x="0" y="0" width="560" height="220" filterUnits="userSpaceOnUse" color-interpolation-filters="sRGB">
      <feDropShadow dx="0" dy="18" stdDeviation="16" flood-color="#2A3547" flood-opacity="0.16"/>
    </filter>
  </defs>
  <path d="M20 158C84 71 174 37 290 55C382 69 446 24 530 8" stroke="#5D87FF" stroke-width="2" stroke-dasharray="8 12" stroke-linecap="round" opacity="0.24"/>
  <path d="M74 171C138 131 190 133 251 163C343 208 420 190 494 116" stroke="#49BEFF" stroke-width="2" stroke-dasharray="6 10" stroke-linecap="round" opacity="0.22"/>
  <g filter="url(#softShadow)">
    <path d="M126 57L178 79V137L126 166L74 137V79L126 57Z" fill="url(#cubeA)"/>
    <path d="M126 57L178 79L126 104L74 79L126 57Z" fill="#B7C7FF"/>
    <path d="M126 104L178 79V137L126 166V104Z" fill="#4A73ED"/>
    <path d="M126 104V166L74 137V79L126 104Z" fill="#6F94FF"/>
    <circle cx="108" cy="118" r="6" fill="white" opacity="0.82"/>
    <circle cx="143" cy="133" r="6" fill="white" opacity="0.82"/>
  </g>
  <g filter="url(#softShadow)">
    <rect x="291" y="27" width="70" height="70" rx="24" fill="url(#orb)" transform="rotate(12 326 62)"/>
    <path d="M314 55C325 45 341 45 351 56" stroke="white" stroke-width="6" stroke-linecap="round" opacity="0.8"/>
    <circle cx="311" cy="76" r="5" fill="#2A3547" opacity="0.58"/>
    <circle cx="342" cy="83" r="5" fill="#2A3547" opacity="0.58"/>
  </g>
  <g filter="url(#softShadow)">
    <path d="M425 71L478 96V150L425 178L373 150V96L425 71Z" fill="url(#cubeB)"/>
    <path d="M425 71L478 96L425 121L373 96L425 71Z" fill="#A7E8FF"/>
    <path d="M425 121L478 96V150L425 178V121Z" fill="#30A7ED"/>
    <path d="M425 121V178L373 150V96L425 121Z" fill="#66CDF8"/>
    <rect x="395" y="131" width="39" height="6" rx="3" fill="white" opacity="0.78"/>
    <rect x="395" y="145" width="55" height="6" rx="3" fill="white" opacity="0.58"/>
  </g>
  <circle cx="236" cy="121" r="12" fill="#13DEB9" opacity="0.72"/>
  <circle cx="514" cy="72" r="10" fill="#8754EC" opacity="0.46"/>
  <circle cx="47" cy="88" r="8" fill="#F6B51E" opacity="0.55"/>
</svg>
