<svg width="360" height="280" viewBox="0 0 360 280" fill="none" xmlns="http://www.w3.org/2000/svg" role="img" aria-label="Soft review queue background cards">
  <defs>
    <linearGradient id="paper" x1="85" y1="30" x2="259" y2="232" gradientUnits="userSpaceOnUse">
      <stop stop-color="#EEF4FF"/>
      <stop offset="1" stop-color="#D8F3FF"/>
    </linearGradient>
    <linearGradient id="coin" x1="218" y1="68" x2="285" y2="136" gradientUnits="userSpaceOnUse">
      <stop stop-color="#FFE6A3"/>
      <stop offset="1" stop-color="#F6B51E"/>
    </linearGradient>
    <filter id="shadow" x="0" y="0" width="360" height="280" filterUnits="userSpaceOnUse" color-interpolation-filters="sRGB">
      <feDropShadow dx="0" dy="16" stdDeviation="18" flood-color="#2A3547" flood-opacity="0.14"/>
    </filter>
  </defs>
  <path d="M25 226C88 173 143 164 205 196C256 222 296 205 334 160" stroke="#5D87FF" stroke-width="2" stroke-dasharray="7 10" opacity="0.22" stroke-linecap="round"/>
  <g filter="url(#shadow)">
    <rect x="77" y="56" width="174" height="146" rx="28" fill="url(#paper)" transform="rotate(-9 164 129)"/>
    <rect x="104" y="92" width="92" height="10" rx="5" fill="#5D87FF" opacity="0.5" transform="rotate(-9 150 97)"/>
    <rect x="108" y="118" width="118" height="8" rx="4" fill="#49BEFF" opacity="0.35" transform="rotate(-9 167 122)"/>
    <rect x="113" y="144" width="83" height="8" rx="4" fill="#49BEFF" opacity="0.3" transform="rotate(-9 154 148)"/>
  </g>
  <g filter="url(#shadow)">
    <rect x="139" y="82" width="156" height="130" rx="26" fill="#FFFFFF" opacity="0.88" transform="rotate(7 217 147)"/>
    <rect x="166" y="120" width="86" height="9" rx="4.5" fill="#5D87FF" opacity="0.38" transform="rotate(7 209 124)"/>
    <rect x="164" y="146" width="103" height="8" rx="4" fill="#13DEB9" opacity="0.33" transform="rotate(7 216 150)"/>
    <rect x="162" y="171" width="72" height="8" rx="4" fill="#13DEB9" opacity="0.28" transform="rotate(7 198 175)"/>
  </g>
  <g filter="url(#shadow)">
    <circle cx="260" cy="100" r="36" fill="url(#coin)"/>
    <path d="M246 101L256 111L276 87" stroke="white" stroke-width="8" stroke-linecap="round" stroke-linejoin="round" opacity="0.9"/>
  </g>
  <circle cx="74" cy="65" r="12" fill="#8754EC" opacity="0.22"/>
  <circle cx="306" cy="209" r="10" fill="#13DEB9" opacity="0.22"/>
</svg>
